<svg width="18" height="18" viewBox="0 0 17 17" fill="none" xmlns="http://www.w3.org/2000/svg">
	<path d="M3.7 16.2998H1.2C0.599997 16.2998 0 15.7999 0 15.0999V9.29984C0 8.69984 0.499997 8.09985 1.2 8.09985H3.7C4 8.09985 4.3 8.19984 4.5 8.39984C4.7 8.59984 4.9 8.89986 4.9 9.19986V14.9998C4.9 15.2998 4.8 15.4999 4.7 15.6999C4.4 16.0999 4 16.2998 3.7 16.2998ZM1.1 9.19986C0.999998 9.19986 0.900002 9.29984 0.900002 9.39984V15.1999C0.900002 15.2999 0.999998 15.3998 1.1 15.3998H3.6H3.7V15.2998V9.49985C3.7 9.39985 3.7 9.39984 3.7 9.39984L3.6 9.29984H1.1V9.19986Z" fill="#fff"/>
	<path d="M9.50002 16.3999C7.90002 16.3999 6.00001 16.2999 4.20001 15.9999C4.00001 15.9999 3.90002 15.8999 3.80002 15.6999C3.70002 15.4999 3.80002 15.2999 3.90002 15.1999V9.2999C3.90002 9.1999 3.90002 9.19992 3.90002 9.19992C3.80002 9.09992 3.70001 8.9999 3.70001 8.8999C3.70001 8.7999 3.70002 8.59991 3.80002 8.49991L3.90002 8.3999C4.30002 7.8999 4.80001 7.2999 5.20001 6.7999C6.00001 5.7999 7.20002 3.59992 7.30002 2.69992C7.30002 2.39992 7.30002 2.19991 7.30002 1.99991C7.30002 1.49991 7.30001 1.09992 7.60001 0.699921C7.90001 0.399921 8.30001 0.399902 8.60001 0.399902C9.20001 0.399902 9.70001 0.699921 10.1 1.19992C10.7 1.89992 10.8 2.99991 10.6 4.09991C10.4 4.69991 10.2 5.2999 10 5.7999C9.90002 6.0999 9.80001 6.39992 9.70001 6.69992C11.3 6.29992 14.7 5.6999 15.7 6.8999C16.1 7.3999 16.1 7.89991 15.7 8.59991C16 8.89991 16.2 9.3999 16.2 9.7999C16.2 10.3999 16 10.8999 15.7 11.3999C16 11.8999 16.1 12.3999 15.9 12.9999C15.8 13.2999 15.6 13.5999 15.3 13.7999C15.5 14.1999 15.6 14.6999 15.5 15.0999C15.3 15.7999 14.5 16.2999 13.4 16.2999H13C11.9 16.3999 10.8 16.3999 9.50002 16.3999ZM4.80002 15.0999C7.90002 15.4999 11 15.3999 12.7 15.2999H13.1C13.7 15.2999 14.2 15.0999 14.3 14.6999C14.4 14.4999 14.2 14.1999 13.9 13.8999C13.7 13.7999 13.7 13.5999 13.8 13.3999C13.9 13.1999 14 13.0999 14.2 13.0999C14.5 13.0999 14.7 12.7999 14.7 12.6999C14.8 12.4999 14.7 12.0999 14.4 11.7999C14.3 11.6999 14.2 11.5999 14.2 11.3999C14.2 11.1999 14.3 11.0999 14.4 10.9999C14.7 10.6999 15 10.2999 14.9 9.8999C14.9 9.6999 14.8 9.39992 14.5 9.19992C14.4 9.09992 14.3 8.9999 14.3 8.8999C14.3 8.7999 14.3 8.59991 14.4 8.49991C14.5 8.29991 14.8 7.79991 14.7 7.49991C14.2 6.79991 11 7.1999 9.20001 7.7999C9.00001 7.8999 8.80001 7.79992 8.70001 7.69992C8.30001 7.19992 8.60002 6.39991 8.90002 5.49991C9.10002 4.99991 9.30002 4.4999 9.50002 3.8999C9.70002 3.1999 9.60001 2.3999 9.20001 1.8999C9.10001 1.6999 8.80002 1.49991 8.50002 1.49991C8.30002 1.49991 8.20001 1.49991 8.20001 1.49991C8.20001 1.49991 8.20001 1.79991 8.20001 1.99991C8.20001 2.29991 8.20001 2.4999 8.20001 2.8999C8.10001 4.1999 6.60002 6.59991 5.90002 7.59991C5.50002 7.99991 5.10001 8.59991 4.70001 8.99991C4.80001 9.09991 4.80002 9.29991 4.80002 9.49991V15.0999Z" fill="#fff"/>
</svg>
