<svg width="16" height="17" viewBox="0 0 16 17" fill="none" xmlns="http://www.w3.org/2000/svg">
    <path d="M6.13609 7.90009C4.03609 7.90009 2.23608 6.20009 2.23608 4.00009C2.23608 1.90009 3.93609 0.100098 6.13609 0.100098C8.33609 0.100098 10.0361 1.80009 10.0361 4.00009C10.0361 6.10009 8.23609 7.90009 6.13609 7.90009ZM6.13609 1.1001C4.53609 1.1001 3.23608 2.40009 3.23608 4.00009C3.23608 5.60009 4.53609 6.90009 6.13609 6.90009C7.73609 6.90009 9.03608 5.60009 9.03608 4.00009C9.03608 2.40009 7.73609 1.1001 6.13609 1.1001Z" fill="#fff"/>
    <path d="M10.1361 16.1001H1.93607C1.33607 16.1001 0.836069 15.8001 0.436069 15.4001C0.0360693 15.0001 -0.0639322 14.4001 0.0360678 13.8001L0.736072 9.80008C0.936072 8.90008 1.73607 8.20007 2.63607 8.20007H3.13607C3.33607 8.20007 3.53607 8.30007 3.73607 8.40007C5.13607 9.20007 6.93607 9.20007 8.33607 8.40007C8.53607 8.30007 8.73607 8.20007 8.93607 8.20007H9.33607C10.2361 8.20007 11.0361 8.90008 11.2361 9.80008L11.9361 13.8001C12.0361 14.4001 11.8361 14.9001 11.5361 15.4001C11.2361 15.9001 10.7361 16.1001 10.1361 16.1001ZM2.63607 9.20007C2.13607 9.20007 1.83607 9.50008 1.73607 10.0001L1.03607 14.0001C1.03607 14.3001 1.03607 14.6001 1.23607 14.8001C1.43607 15.0001 1.63607 15.1001 1.93607 15.1001H10.1361C10.4361 15.1001 10.6361 15.0001 10.8361 14.8001C11.0361 14.6001 11.1361 14.3001 11.0361 14.0001L10.3361 10.0001C10.2361 9.60008 9.83607 9.20007 9.43607 9.20007H9.03607C8.93607 9.20007 8.93607 9.20007 8.93607 9.20007C7.23607 10.1001 5.03607 10.1001 3.33607 9.20007H3.23607H2.63607Z" fill="#fff"/>
    <path d="M15.2361 7.40015H11.5361C11.2361 7.40015 11.0361 7.20015 11.0361 6.90015C11.0361 6.60015 11.2361 6.40015 11.5361 6.40015H15.2361C15.5361 6.40015 15.7361 6.60015 15.7361 6.90015C15.7361 7.20015 15.5361 7.40015 15.2361 7.40015Z" fill="#fff"/>
    <path d="M13.436 9.20012C13.136 9.20012 12.936 9.00012 12.936 8.70012V5.00012C12.936 4.70012 13.136 4.50012 13.436 4.50012C13.736 4.50012 13.936 4.70012 13.936 5.00012V8.70012C13.936 9.00012 13.636 9.20012 13.436 9.20012Z" fill="#fff"/>
</svg>
