<svg width="63" height="66" viewBox="0 0 63 66" fill="none" xmlns="http://www.w3.org/2000/svg">
    <path d="M1 4C1 1.79086 2.79086 0 5 0H27V62C27 64.2091 25.2091 66 23 66H5C2.79086 66 1 64.2091 1 62V4Z" fill="#7487EB"/>
    <path d="M47 0H53C58.5228 0 63 4.47715 63 10V30C63 35.5228 58.5228 40 53 40H47V0Z" fill="#62C778"/>
    <rect x="29" width="16" height="40" fill="#FB8936"/>
    <path d="M1 20L44.2981 19.8137" stroke="white" stroke-width="2"/>
    <path d="M53.0345 19.0922C53.8087 19.4498 53.8087 20.5502 53.0345 20.9078L45.1693 24.5406C44.5067 24.8467 43.75 24.3627 43.75 23.6328L43.75 16.3672C43.75 15.6373 44.5067 15.1533 45.1693 15.4594L53.0345 19.0922Z" fill="white"/>
</svg>
